<svg xmlns="http://www.w3.org/2000/svg" viewBox="0 0 452.84 394.69"><defs><style>.cls-1{fill:#ddd;}.cls-2{fill:#ff7606;}.cls-3{fill:none;stroke:#00defc;stroke-miterlimit:10;stroke-width:3px;stroke-dasharray:5 5;}.cls-4{fill:#00defc;}.cls-5{fill:#734a3e;}.cls-6{fill:#623f33;}.cls-7{fill:#fdc88e;}.cls-8{fill:#f5b97a;}.cls-9{fill:#00bea4;}.cls-10{fill:#ffd7a3;}.cls-11{fill:#e4b07b;}.cls-12{fill:#00ab9a;}.cls-13{fill:#f6b47b;}.cls-14{fill:#9bce7a;}.cls-15{fill:#e2a071;}.cls-16{fill:#6e4439;}.cls-17{fill:#5e342e;}.cls-18{fill:#8abe69;}.cls-19{fill:#43a0c5;}.cls-20{fill:#2c8cb3;}.cls-21{fill:#ffc84a;}</style></defs><title>map-01</title><g id="svg2"><path id="kalimantan" class="cls-1" d="M416.27,240.9l-1.65,6.21-9,3L403,247l-1.3.35,2.43,9.38,3.64.41L412.6,259v1.84l2.23-.41,3.23-4.48v-3.66l1.83-3.67,2,.41-2.43-5.1-.37-3.28-2.84.29Z"/><path id="mexico" class="cls-1" d="M-44.1,170.18l3.45,10.87-1.61.9.18,2.15,3,2.34v4.32l3.75,3.61-1.61-10.62-2.14-7,.54-4.86,1.78.18.72,1.62-.72,4.14L-27.43,196v6.48l7.51,8.82,8.21,3.78,3.4-2,4.82,4,2.86-2.88-1.25-3.24,4.11-1.26,1.25.72,1.25-1.26h2l3.57-6.3L8.48,201.2l-7,1.62L-.09,207.5l-4.11.72-4.83-2-2.14-6.84,1.62-8.62-3.31-2.07-1.58-8.28-1.32-.56-2.42,2.45-2.77-1.48L-22,175.31l-11-1.15-5.68-4.26-5.4.28Z"/><path id="estonia" class="cls-1" d="M227.67,111.74l-4-.14-2.53,1.55,0,1.15,1.65,1.55,5.11.86-.18-5Z"/><path id="algeria" class="cls-1" d="M196.3,171.65l-2.92-1L181.25,173l-2.64,2,1.61,8.34-4.82.19-2.9,4.67-6.92,1.65,0,3.4,22.76,17.4,3.88.33,12.94-10.11-1.29-1.63-2.43-.33L200,196.42V186.31l-1-1,.16-2.61-2.59-2.6-.32-2.78,1.13-.81-.48-2.94-.64-1.94Z"/><path id="morocco" class="cls-1" d="M178,175.07h-8.25l-1.62,3.59-3.72,1.79-3.07,8.32-6,3.59L147,206.22l8.25-.17.32-4.07h2.1v-5.55h7.29l.16-7.17,7-1.63L175,182.9l4.53-.17L178,175.07Z"/><path id="mauretania" class="cls-1" d="M147,206.79l1.56,2-.32,8.81,2.27-1.63,1.61-.33,2.27.81,2.58,3.59,2.43-1.63,11.82-.16-2.92-19.73,3.13,0-5.83-4.46V197h-7.39l0,5.53h-2.12l-.28,4.08-8.79.2Z"/><path id="senegal" class="cls-1" d="M150.73,216.55l-2.81,2-.64,1.15-.2,1.14,1,.74,3.46-.05,2.22-.6.25,1.1-.2,1.44,2.13,1,.44.5,2.81.1.1-1.24-2.57-3.09-2.86-3.88-1.78-.74-1.38.35Z"/><path id="gambia" class="cls-1" d="M148.43,222.28l-.1.79,4.95-.07.25-.73-.11-.75-1.42.58-3.57.18Z"/><path id="casamance" class="cls-1" d="M148.35,223.62l.89,2.16.49-1.33,6,.62-2.6-1.33-4.79-.12Z"/><path id="bissau" class="cls-1" d="M149.65,226.7l1,2,2.81-2.41,0-.74-3.31-.48-.53,1.65Z"/><path id="guinee" class="cls-1" d="M151,229.14l2.17,3.35L156,230l2.9-.13,2.42,3.21,2,1.35.77-1.5.69-.39-.05-3.3-1.37-3.92-4.19.47L154,225.4l0,1.33-3,2.41Z"/><path id="sierra_leone" data-name="sierra leone" class="cls-1" d="M153.46,232.85l4,3.9,2.88-3.49-1.81-2.83-2.48.25-2.63,2.17Z"/><path id="liberia" class="cls-1" d="M157.92,237.18l7.84,5.25-.18-4-2.37-2.79-2.32-2-3,3.57Z"/><path id="ivoire" class="cls-1" d="M166.42,242.58l3.06-2.16,3.8-.67,3.88.84-2-3-.58-1.83.58-5.41-3.46.16-1.58-1.5-3.3.09-1.57.25.16,3.65-.82.34-1,1.83,2.56,3,.25,4.41Z"/><path id="mali" class="cls-1" d="M157.41,220.49l2.2-1.5,12.24-.08L169,199.23l3.23-.09,15.62,11.93,2.11.3-.8,6.63-9.82.89-7.59,5.66-1.38,3.88-5.26.22-1.35-3.87-4,.29.15-1.27-2.49-3.31Z"/><path id="burkina" class="cls-1" d="M179.66,219.38l2.6-.21,4.26,6-4,3-2.86-.74-3.85.05-.62,2.26-3.23.16-.89-1.21,1.14-3.67,7.41-5.66Z"/><path id="niger" class="cls-1" d="M187,224.9l1.82-.05,1.64-2.46,2.76-.5,2.94,1.8,6.27.18,4.84-2,1.82-1.56.14-2.06,3.38-3.41.89-7.52-2.22-4.66-5.69-1.39-13.16,10.26-1.87-.17-.8,7.12-6.71.67,4,5.73Z"/><path id="ghana" class="cls-1" d="M175.19,235.65l.8,1.88,2.09,3.27,1.15,0,3.16-1.79-.22-10.21-2.44-.72-3.43.09-1.11,7.52Z"/><path id="togo" class="cls-1" d="M183,238.65l1.91-1.12,0-7.4-1.25-2-.8.67.18,9.86Z"/><path id="benin" class="cls-1" d="M185.46,237.4H187l.09-4.31,1.92-2.78-.09-4.83-1.74,0-3,2.33,1.25,2.37,0,7.27Z"/><path id="nigeria" class="cls-1" d="M187.5,237.31l2.8.14,3.38,3.76,1.65.45,1.28-.63,2-.27.67-2.73,2.66-1.75,2.89-.14,5.29-9.72-.09-2.2-2.44-1.88-4.89,2.16-6.54-.1-3.11-2-2.23.49-1.15,2-.09,5.69-1.87,2.64-.17,4Z"/><path id="tunisia" class="cls-1" d="M197,171.53l4-1.59,1.3.84.05,1-.61.8.09,1.4.61.33v2.53l-.7,1.17.09.75,2.66.94-2.14,3.32-.84-.05-.14,2.68-.93.14-.79-.7.18-2.72-2.6-2.53-.33-2.2,1.26-1L197,171.53Z"/><path id="libya" class="cls-1" d="M200.71,186.33l1.11-.19.33-2.57h.56l2.28-3.75,5.62,1.64,1.54,2.39,5.53,2.53,2.88-1.22-.28-1.21L219,182.73l.14-.84,2-1.73h4l1.53,2.06,3.26.47.42,26.36-2.42-.09-14.59-7.59-1.58.89-6-1.5-1.63-2.15-2.37-.33-1.21-2.15,0-9.8Z"/><path id="egypt" class="cls-1" d="M230.64,182.77l1.91,0,3.71,1,1.77.05,2.19-1.83h1l1.86,1h2.35l.42,0,1.48,4.27.43,1.38.39,2.06-.7.52-1.21-.61-1.39-4.54-1.26-.1-.09,1.55.83,2.67,6.7,8.29.14,3.56-1.95,2.25-18.32-.21-.28-21.4Z"/><path id="chad" class="cls-1" d="M209.81,220.61l.1-2.11,3.38-3.29.91-8.09-2.26-4.32,1.58-.81,15.3,8-.1,7.82L226,220.07v4l1.76,3.42h-3.11l-5.16,5.1-.14,1.55-3.81,0,0,.7-2.17-.29-1.48-2.81-1.12-.55.14-.86,1.4-1.07v-5l-1.93-.3L208,222.19l1.79-1.58Z"/><path id="south_sudan" data-name="south sudan" class="cls-1" d="M250,230.86l-2.1-3.54-.22-2.57-.5.1-.14.79-2.76,4-2.2-1-2.19,1.84-4.54-.26-2-1.61-2.88,1.48-.11,1-.88.53,8.8,9.06,4.8.27.7,1.07,6.86.12.06-1.54.58-1.06,2.29-.3-2.85-4.13h-2.1l-.54-2.94,1.69-.74Z"/><path id="sudan" class="cls-1" d="M252.13,202.46l-2.64,2.66L231.05,205l.2,4.69-1.75-.05-.13,8.46-2.67,2.29-.11,3.53,1.93,3.8,2.11,1.24,0,.3,2.88-1.47,2.19,1.75,4,.23,2.32-1.95,2.07,1,2.32-3.39.2-1.13,1.77-.34.27,3.2,1.77,3,4.29-9.23v-5.61l3.12-3.67Z"/><path id="cameroon" class="cls-1" d="M199.12,240.82l2.3,2.11-.17,3.28,12.62-.3,1-1.15-3.61-3.9-.54-1.41,2.3-4.31-1.56-2.85-1.32-.71v-1.45l1.52-1,.09-4.51-1.21-.14,0,2.37-5.3,9.9-3.25.17-2.22,1.53-.66,2.37Z"/><path id="eritrea" class="cls-1" d="M255.49,219.68l-.17-4.21,2.83-3.3.76.58,1.39,4.66,6.69,5-1.21,1.49-4.9-4.21Z"/><path id="djibouti" class="cls-1" d="M266.05,224.57l-.41,2.4,2.83,0,0-3.53-1-.64-1.43,1.81Z"/><path id="ethiopia" class="cls-1" d="M250.34,231.87l5.2-11.58,5.16,0,4.59,4-.33,3.28h3.56l.36,2,5.75,3.43,3.54.18-6.74,7.24-9.25,2.85h-2.3l-4.09-3.48-1.61-.68-3.13-4.61-2.07,0-.24-2.12,1.6-.53Z"/><path id="somaliland" class="cls-1" d="M269.09,227.07l2.92,2,.87-.05,7.23-2.48.83,2.65-.58,2.23-1.57,1.25-3.91-.25L269.29,229l-.2-1.9Z"/><path id="soqotra" class="cls-1" d="M286.16,223.22l1.52,1.7,2.06-1.25.74-.25-.94-.91-1.81.54-1.57.17Z"/><path id="somalia" class="cls-1" d="M280.69,226.36l3.13-1.2,1.1.67-.12,2.77-2.88,8.2-15.58,16.7-1.81-1.25-.12-7,2.34-2.7,5-1.53,7.3-7.71,1.91-1.7.54-2.49-.78-2.72Z"/><path id="centrafrique" class="cls-1" d="M211.87,240.65l3.33,3.61,1.31-1.7,2.09.08.45-1.66,2.06-1.28,4.28,2.94,2.46-2.44,9.57.42-8.87-9.16,1.19-.75.16-1.61-2-.95h-3l-4.77,4.72-.16,1.95-3.78-.13-.12.83-2.47-.25-2.22,4.23.46,1.15Z"/><path id="sao_tome" data-name="sao tome" class="cls-1" d="M194.06,250l.82-.42.61.5-.61,1-.74-.29-.08-.74Z"/><path id="principe" class="cls-1" d="M195.71,247.41l1.23-.21.42.79-.62.66-.61-.08-.42-1.16Z"/><path id="bioko" class="cls-1" d="M198.42,243.06l-.33,1.4,1,.54,1-.71-.33-1.45-1.27.22Z"/><path id="gabon" class="cls-1" d="M205.24,246.79l-.09,1.78-4-.09-2.46,4.77,5.79,6.34,1.44-1.21,0-1.24-1-.46v-.87l2.22-1.41,2,1.5,2.18,0-.05-7.5-3.45-.16,0-1.57-2.46.08Z"/><path id="equatorial_guinea" data-name="equatorial guinea" class="cls-1" d="M201.38,246.83l0,1,3.24.17,0-1.13-3.16,0Z"/><path id="congo" class="cls-1" d="M208.54,246.71l0,1,3.42.09.12,8.87-3.12-.09-1.81-1.41-1.4.79-.07.39.73.35.2,1.83-1.93,1.65.42.88,2.13-1.66h1l.33,1,1.36.58,4.36-3.69-.09-2.69.91-2.2,2.8-2.07.75-7h-2l-2.3,3.15-5.8.21Z"/><path id="cabinda" class="cls-1" d="M205.36,261.51l1.24,1.61,1.61-1.52-.48-1.58-.4,0-2,1.52Z"/><path id="drc" class="cls-1" d="M207.38,263.28l7.37-.13,1.49,2.12-.06,1.57.55.5h3.66l1.05-2.07h1.5l.6.62,2.05-.06.61,7.2,3.55.12v.56l9.52,4.29.45.84h2l-.22-3-3.6-1.73.22-2.28,1.55-3.63,3.54-.12-3-10.1.06-4.3,4.81-7.53.06-1.06-.72-.39,0-2.05-.88-.07-.89-1.13-14.54-.66-2.67,2.59-4.36-2.87-1.54.94-1.12,9.39L215.65,253l-.83,1.88.15,2.8-5,4.06-1.32-.6.18.78-1.47,1.41Z"/><path id="rwanda" class="cls-1" d="M242,252l2,1.85-.08,2-3.12.07v-2.19L242,252Z"/><path id="burundi" class="cls-1" d="M240.84,256.49l3.06-.06-.8,2.67-.77.67h-.94l-.67-1.81.12-1.47Z"/><path id="uganda" class="cls-1" d="M242.34,251.4l2.16,2,1.36-.86,3.67-.6.63.06.24-1.39,2.07-4.36-1.74-3.63-5.65,0,0,1.5.76.73-.12,1.49-3.34,5Z"/><path id="kenya" class="cls-1" d="M251.29,242.42l1.9,3.71-2.28,4.78-.3,1.45,11.39,7,3.53-5.55-1.79-1.45,0-7.3,2.23-2.44-3.56,1.18-2.7,0-4.21-3.56-1.33-.57-2.47.23-.43.72,0,1.72Z"/><path id="tanzania" class="cls-1" d="M251.11,274.51,263.59,273l-2.81-5.43-.15-5.21.91-2.48-11.88-7.46-3.72.61-1.29,1-.12,2.18-.83,3-.88,1-1.25.11,2.4,8.3,3.91,1.84,2.69.07.54,4Z"/><path id="zambia" class="cls-1" d="M225.37,284l2.26,3.14,3.51.22,1.24.68,3.68,0,3.16-4.44,8.85-4,.77-3.49-1-5-4.61-2.63-3.08.21-1.54,3.4,0,1.55,3.63,1.77.22,3.84-3.13.17-.77-1.3-8.67-3.7-.26,2.85-4.1.12-.17,6.51Z"/><path id="angola" class="cls-1" d="M206.83,264l2.44,9.1-.06,2.88-3.56,3.83-.54,6.22,13.72.12,4.46,1.62,3.68-.48-2.14-2.69v-7.67l4.21-.18v-3l-3.42-.14-.69-7.09-1.44,0-.78-.7-.85,0-1.13,2.19H216.4l-1-1,.3-1.44-1.19-1.74-7.67.12Z"/><path id="malawi" class="cls-1" d="M248.67,280.21l2.22,2.32,0,3,.43,1.25,2.95-3.19-.34-4.05-1.58-1.21-1.41-7.11-2.44-.09,1.11,5.13-.9,4Z"/><path id="mozambique" class="cls-1" d="M244.39,304.42l1.92,1.6,4.53-2.76.73-4.1V292.4l7.27-5.94,1.24,0,4.41-4.22-.69-8.71L252.13,275l.34,2.63,2,1.55L255,284,251,287.8l-.94-2.15.17-2.85L248,280.35l-5.56,2.58,5.18,2.63.17,7.67-3.42,5.08,0,6.11Z"/><path id="zimbabwe" class="cls-1" d="M232.59,289.43l6.41,7.24,4.92,1.25,3.29-5.17-.26-6.84-5.34-2.76-2,.9-3,4.57-4.15,0,.13.85Z"/><path id="namibia" class="cls-1" d="M212.5,310.63l2.4.17,1.4,1.42,3.34,0,.82-9.47v-6.21l2.13-.43.82-6.5,5.43-.17,1.92-1.59-3.25-.13-4.4.6-4.75-1.73H205l.34,3.79,4.44,6.55-.77,3.36.05,1.76,3.41,8.54Z"/><path id="botswana" class="cls-1" d="M221.05,303l1.54.47-.22,4.39L224,308l3.63-3.27,4.36.47,1.16-2.93,5.51-5L232,289.64l-.09-1.25-.72-.21-2,1.85-5.22.13-.73,6.5-2.05.47-.12,5.83Z"/><path id="swaziland" class="cls-1" d="M244.17,304.94l-1.79.3-.77,2.11L243,308.6h1.67l1.4-2-1.88-1.63Z"/><path id="lesotho" class="cls-1" d="M234.56,313.08l2.18-1.68,1,0L239,313l-.13,1.55-2.09.77v.6l-2.31-.12-.56-1.68.64-1Z"/><path id="south_africa" data-name="south africa" class="cls-1" d="M239.38,297.53l-5.65,5.21L232.39,306l-4.47-.56-3.73,3.31-2.47-.25.2-4.57-.88-.31-.61,9.36-4.39,0-1.32-1.56-1.94,0,1.77,5.06,3.15,3L215.45,322l1.45,3.28,3.38,1.29,2.68-2.29,7.7.05.55-.69,3.42-.6,11.55-11.51,0-3.62-1.24,1.6h-1.85l-2.25-1.89,1.14-2.84,2-.4-.18-5.85-4.35-1Zm-2.71,13.22,1.08-.05,1.75,1.91-.05,2.2-2,1-.13.73-3.13,0-1-2.36.9-1.73,2.61-1.77Z"/><path id="greenland" class="cls-1" d="M87.14,44.85l-1,1.56,1.75,1.75-.78,1.75,2.53,3.3,3.11-1,4.08-.39,4.66,5,3.11,8.36-2.52,5.24,3.49-.58,2,1.16.19,2.53-4.27.2,2.33,2.33,2.91.58-6.41,8.55-.78,5.24,1.36,4.28-1,2.53,1.75,5.44,3.3,3.69,1-.19,2.14-.59.19,3.11,1.36,1.94,2.52-.19,2-7.19,5.83-7.19,8.75-3.49,5.44-6.81L138.63,87h5.24l4.28-4.27,5.24-2.14.59-3.3-3.3-2.92-2.92-1-1.56-4.08,3.7-2.14,5.83,3.11,1.94-2.14-3.1-1.75,6.61-8.94L160,53.6l-3.11-.2,1.17-3.49L162,48.16l8-7-2.33-2.52-8.94.78L154,44.08l2.72-6-3.11-.78-1.75,3.11-2.52-2.14-7,.78,1.94-3.11,11.47-.38-2.92-3.89-12.43-2.33-5.06.78.2,2.53-5.25-1.75.19-1.75-3.69.77-.78,2,3.89,1.36-4.08,2.91-2.92-3.3-4.08-1.16-.58,3.1h-4.09l-1.55-3.3-6.41-1-3.5,1.75-.19,2.33L98,34,95.3,35.15l.19,2.72v1.36l-5,1-2.33-1.55-1.56,2.52,2.33,2.53,4.86-.58.39,1.56-3.7,1.75-3.29-1.58Z"/><path id="disko" class="cls-1" d="M102.69,75.17l1.16,1.75-.58,2.14H102.1l-1.56-1.75.39-1.36,1.76-.78Z"/><path id="milne" class="cls-1" d="M151.27,70.31l3.3,1L154.38,74l-3.5-1.76-.77-1,1.16-1Z"/><path id="australia" class="cls-1" d="M401.61,314.93l-.25,18.14-2.79,2-.25,1.79,3.81,2.55,9.38-1.79h4.82l1.77-2.56,10.65-2,7.6,2.3-.51,3.07,1,3.06,5.83-1,.25,1.53-3.8,2.81,1.26,1,2.79-1-.76,8.43,5.33,4.09,3-1,1.52,1.53,8.88-1.28L469.57,343l3-.76L478.69,331l1.53-9.71-3.81-4.85,1.53-1L474.89,306l-3.29-2.3.5-12.77-3-2.3-.76-7.15h-1.52l-5.07,16.85-2.79.26-6.34-6.39,3.55-9.45-6.59-1.28-7.35,2-2,5.88-3.29.76-.25-4.09-13.44,8.18.25,3.07-2,2.8h-5.07l-10.91,4.6-3.81,10.25Z"/><path id="tasmania" class="cls-1" d="M447.76,363.72l-1.27,5.11.25,3.58,3.8-.26,4.31-6.64-7.09-1.79Z"/><path id="sumatra" class="cls-1" d="M374,236l-.2,1.63,4.85,8.16H380l10.11,16.91,4.05.41,2-5.91-3.24-2-.61-3.26L374,236Z"/><path id="east_malaysia" data-name="east malaysia" class="cls-1" d="M403.73,247l2.16,2.5,8.28-2.87,1.63-6.32,3.69-.26,3.38-2.44-4.38-3.19-1-1.75-2.16,4,.8,2.28-1.32,1.91-2.48-.63-6,4.41.16,2.55-2.75-.17Z"/><path id="brunei" class="cls-1" d="M414.9,237.22l-2,2.5,1.68.53,1-1.33-.58-1.7Z"/><path id="sulawesi" class="cls-1" d="M421.88,258.56l1.61,2-1.05,3v.56h2.39l.84-7.43.78.21,1.4,6.79,1.33.36,1.27-2.9-1.27-4.39-1.05-1.91,3.3-2.41-.77-1.06-3.16,2h-.84l-1.54-2.27.49-1,2.6-1.27,3.93,1.2,1.2-.07,3-2.76-1.2-1.2-2.73,2.12H430.6l-2.67-1.27L426,247l-2.11,3.39-1.34,5.88-.71,2.34Z"/><path id="maluku" class="cls-1" d="M439.5,245.26l-1.33,3.26,2.1,2.75h.7l.92-1.83.49-.64-.91-1-1.34-.5-.63-2.05Z"/><path id="seram" class="cls-1" d="M443.65,256l-2.88.63-.85.93.7,1.2,1.9-.71,1.19-.71,1.76,1.42.77-.64-1.4-1.7-1.19-.42Z"/><path id="java" class="cls-1" d="M395.89,265.15l-2,1.34.42,1.13L400.6,269l3.16.57L405.1,271l3.58.29,1.69,1.41,1.54-.35,1.41-1.28-2.6-1.2-2.25-1.9-5.83-1.42-6.75-1.41Z"/><path id="bali" class="cls-1" d="M416.33,271.3l-1.54.85.91,1,2.25-.85-1.62-1Z"/><path id="lombok" class="cls-1" d="M419,270.66l.28,1.35,1.61.42.63-.78-.7-1.07-1.82.08Z"/><path id="sumba" class="cls-1" d="M422.87,274.2l-2,.29,1.76,1.48h1.4l-1.19-1.77Z"/><path id="flores" class="cls-1" d="M423.42,271.86l-.42.85,3.16.5,2.46-1.42-1.4-.42L425,272l-.84-.71-.71.56Z"/><path id="timor" class="cls-1" d="M433.75,272.36l-3.65,3.05.35.78,1.54-.29,1.82-1.7,3.58-.49-.7-1.2-2.94-.15Z"/><path id="palawan" class="cls-1" d="M421.76,221.7l-.61,1.17-.34,1.45-3.42,4.34.21.89,1.43-.21,4.44-5-1.71-2.68Z"/><path id="negros" class="cls-1" d="M427.3,220.05l-.08,3.58,1.31,1.31.47,2.54,1.3.28.62-1.58-1-.76-.27-4.48-2.33-.89Z"/><path id="cebu" class="cls-1" d="M431,221.43l-.07,3.17.75,1.23,1.3-1.51-.34-2.75-1.64-.14Z"/><path id="samar" class="cls-1" d="M431.81,218.67l1.3,1.72.61,1.65h1.17l-.21-2.82-1.3-.89-1.57.34Z"/><path id="path7462" class="cls-1" d="M434.34,225.15l.27,2.06-2.4,1.93-2,.21-2.11,2.27.07,1,2-.62,1.36-.9,1.17,3,2.05,1.44.82-.27.75-.9-1.63-1.65.95-.76,1.1.9.75-1.24-.75-1.51-.14-3.38-2.26-1.58Z"/><path id="luzon" class="cls-1" d="M423.2,204.15l-1.84,1.31-.21,4.13,2.87,5.57,1,.76,1.23-.83,2.12.34.4,1.86,1.57.14.76-1-1-1.31-1.17-1.1-2.46-.27-1.3-2.14,1.5-2.27.14-2-1-2.55-2.59-.62Z"/><path id="mindoro" class="cls-1" d="M424.16,216.47l.54,1.93,1,.62.69-.89-1.1-1.52-1.09-.14Z"/><path id="hainan" class="cls-1" d="M400.65,202.15l-1.7.48-1.23,1.51,1,2,1.5.13,1.71-1.51.4-2-1.7-.61Z"/><path id="taiwan" class="cls-1" d="M420.4,186.53l-2.53,1.93-.14,3.71,2.19,2.55.54-.48-.06-7.71Z"/><path id="kyushu" class="cls-1" d="M431.67,163.74l-1.17,1.17.48,1.65,1,.07.68,3.58.82.89,1.44-1.3.61-2.35-1.77-2.54-2.12-1.17Z"/><path id="shikoku" class="cls-1" d="M438,161.4l-2,1.86-.07,2.13.48.63,2.66-2.28-.21-2.27-.88-.07Z"/><path id="honshu" class="cls-1" d="M435.22,157l-3.49,4,.62,1,1.71.21,3.21-2.48,2.25-.42,2.05,2.41,1.58-.55.61-2.34,2.94-.07,2.87-3.45-1.5-5.72-.69-3,1.51-1.23-3.42-5.16-.89.07-1.84,2.06V144l.82,1,.27,4.55-2.11,2.61-1.23-.76-1,2.14-.21,2,.75,1.17-.47.89L438,156.23h-1.09l-1,.55-.75.21Z"/><path id="hokkaido" class="cls-1" d="M441.1,125.87l-1.09,1,.55,2.06,1,1-.07,3.17-1.23.47-1,2.14,2.8,3.85,1.84-.62.35-1-2-1.79,1.23-1.59,1.3.21,1,1.1.07-2.27,2.8-2.27,1.57-.42-1.3-2.2-.61-1-1,.68-.89,1.1-1.91-.41-2-1.31-1.45-1.92Z"/><path id="iturup" class="cls-1" d="M451.42,123.74l-1.92,2.68.14,1.31.95-.41,2.25-2.82-1.42-.76Z"/><path id="sakhalin" class="cls-1" d="M428.39,96.68l-.06,4.41,5.53,8.54,2,7.43,3.48,6.61,1.37.48,1.16-1,.55-1.59-5-5.44.13-2.82,1.1-.48.27-1.65-9.77-13.84-.75-.69Z"/><path id="kerguelen" class="cls-1" d="M302.7,366.13l-.11,3.06,4.25,1,1-2.53-1.52.44-2,.44-.54-2.3-1.09-.1Z"/><path id="mauritius" class="cls-1" d="M295.73,294.21l-1.09,1.42.22,1.54,2.28-1.87-1.41-1.09Z"/><path id="reunion" class="cls-1" d="M291.71,296.63l-1.63.1-.11,1.42,1.09.23,1.63-.77-1-1Z"/><path id="madagascar" class="cls-1" d="M280.93,275.58l-1.52,3.62-2.61,4.6-4.57.33-2,2.3.33,7-2.83,3.28.33,5.59,2.4,2.74,2.83-.33,2.83-2.09-.66-3.28,6.53-11.3-1.31-1.42L282,283.9l1.41.44.44-1.09-1.31-5.59-.76-2.3-.88.22Z"/><path id="grande_comore" data-name="grande comore" class="cls-1" d="M270.49,274.37l.33,1.09,1.41.23.54-1.43-2.28.11Z"/><path id="mayotte" class="cls-1" d="M272.55,276.57l.55,1.2H274l.43-1.53-1.85.33Z"/><path id="aldabra" class="cls-1" d="M288.11,265.16l-.43.88,1.19,1,.87-1-1.63-.88Z"/><path id="praslin" class="cls-1" d="M294.21,258.58l-1.31.88,1,1.54h1.31l-1-2.42Z"/><path id="mahe" class="cls-1" d="M294.75,262.42l-.87,1,.65,1,1.19.23.11-2.09-1.08-.11Z"/><path id="male" class="cls-1" d="M326.74,238.3l.21,1.87,1.2.43.21-1.64-1.62-.66Z"/><path id="maldive" class="cls-1" d="M328.26,242.25l-.11,2.3.87.44.77-1.54-1.53-1.2Z"/><path id="gan" class="cls-1" d="M328.48,246.74l-.76.77.87.76,1.09-.76-1.2-.77Z"/><path id="path151" class="cls-1" d="M124,164.17l-1,1,1.74,1,.19-1.36-1-.59Z"/><path id="terceira" class="cls-1" d="M129.19,163.58l-1.17.78,1,.78,1.56-.4-1.36-1.16Z"/><path id="pico" class="cls-1" d="M130,166.32l-.58,1.56.77,1,1-.78L130,166.32Z"/><path id="sao_miguel" data-name="sao miguel" class="cls-1" d="M134.61,169.44l-.38,1,.57.58,1.56-1-1.75-.59Z"/><path id="madeira" class="cls-1" d="M149.35,178l-.77,1,.77,1,1.16-.59L149.35,178Z"/><path id="lanzarote" class="cls-1" d="M154.67,190.4l-1.26.72.58.59.68-1.31Z"/><path id="gran_canaria" data-name="gran canaria" class="cls-1" d="M150.32,190.54l-1.55.39.77,1.17h1.17l-.39-1.56Z"/><path id="tenerife" class="cls-1" d="M146.63,189.36l-1,1,1.36,1.18.77-1.76-1.16-.4Z"/><path id="santo_antao" data-name="santo antao" class="cls-1" d="M134.61,216.71l-1.36.78,1,.77,1.16-.58-.78-1Z"/><path id="boa_vista" data-name="boa vista" class="cls-1" d="M138,218.28l-.89.78.63,1.17,1.52-.68L138,218.28Z"/><path id="santiago" class="cls-1" d="M136,220.49l-1.13.68,1.22,1.63,1-.51-1.05-1.8Z"/><path id="guadeloupe" class="cls-1" d="M55.31,211.58l-1.07.45.38.95,1.26-.83-.25-.25-.32-.32Z"/><path id="dominica" class="cls-1" d="M57.08,212.66,56.45,214l.76,1,.94-.82-1.07-1.53Z"/><path id="martinique" class="cls-1" d="M59.22,216.34l-.75.7.56,1.15,1.07-.32-.88-1.53Z"/><path id="st._lucia" data-name="st. lucia" class="cls-1" d="M59.16,219.2l-.51,1.08.82.89,1.08-.58-1.39-1.39Z"/><path id="st._vincent" data-name="st. vincent" class="cls-1" d="M59.22,221.93l-.88.64.7,1.27,1.13-.64-1-1.27Z"/><path id="grenada" class="cls-1" d="M58.15,224.4l-.82.83.31.5h1l.32-.83-.82-.5Z"/><path id="trinidad" class="cls-1" d="M59.35,226.88l-.76.7-.82.13v1l1.51,1.39.63-1,.38-1.15-.13-1-.81-.13Z"/><path id="puerto_rico" data-name="puerto rico" class="cls-1" d="M51.35,209.93l-1.89-.63-1.51.95.75.88,2.58.38.07-1.58Z"/><path id="haiti-dominican_border" data-name="haiti-dominican border" class="cls-1" d="M36.93,205.87l-1.2,1.22,1.37.56.2,1.71-3,.26.3,1.65.88.06.51-.76,3.53.12.64,1.22.81-1,2.38-.64,2.09.44.25-1.26L41.89,207l-2.44-.91-2.52-.24Z"/><path id="domincan_republic" data-name="domincan republic" class="cls-1" d="M45.67,209.49,41.89,207l-1.78-.61-.6,4.29.63,1.2.82-1,2.39-.63,2.08.44.24-1.27Z"/><path id="haiti" class="cls-1" d="M36.92,205.87l2.46.26-.3,3-.24,1.58L36,210.57l-.51.77-.88-.06-.31-1.66,3-.25-.19-1.71-1.38-.57,1.19-1.22Z"/><path id="falklands_west" data-name="falklands west" class="cls-1" d="M77.72,372.24l-1.88-.2L74,373.29l1.35,1.48,2.4-2.53Z"/><path id="falklands_east" data-name="falklands east" class="cls-1" d="M79.59,371.3l-.62,2-1.77,1.58.1.52,3-1.16,1.25-1.57-2-1.36Z"/><path id="iceland" class="cls-1" d="M148.05,92.91l-1.4-.8-1.89,1.2-1.62,1.5,0,.84,2.1.26-.13,1.5-.74.75.18.49,2.1.13v2.43l3,.53,1.8,1,2,.08,3.46-1.72,2.67-3.53,0-2.39-1.63-1.37-1.35-1.15-.62.44-.92,1.2-1.05-.14-1-1.15-1.36.13-2,1.63-1.19,1.28-.66-.57,0-1.41.66-.45-.47-.73Z"/><path id="spitsbergen" class="cls-1" d="M206.58,47.63l-1.18-1.18-2.62,1.27H198l-.76,2.8,2.7,2.38,1.18-.17,1.68-2.89,1.43,1-1,2-.51,3,1.18,1.87,2.53-4.24,3.29-4-1.27-1.1-1.84-.77Z"/><path id="nordaustlandet" class="cls-1" d="M208,42.54l-2.11,2,1.26,1.95h2.28l.92,1.27,2.78,1.45,3.21-1.87,2.19-1.86-.76-1.53-2.19-1.27L214,44.07l-1.1-1.36-.84.09L211,45.18l-1.6-1.62-.17-1.1-1.18.08Z"/><path id="edgeoya" class="cls-1" d="M212.81,51.29l-1.69,1.53-1.43,1.1.67,1.18,1.36.42,2.19-1,1-1.27L214,51.7l-1.19-.41Z"/><path id="prince_george" data-name="prince george" class="cls-1" d="M249.14,36.79l1.23.5-.86,1.48v2.11L247.66,42h-2l-1.11-1.37.12-1.49.87-1.11h1.72l1.84-1.24Z"/><path id="salisbury" class="cls-1" d="M253.82,35.43v1.49l1.22,1,1.73-.12,1.48-1.37v-1H256.9l-1.11.37-.87-1-1.1.62Z"/><path id="wilczek" class="cls-1" d="M260.83,35.56l.87,1.86,1.72.12,1.23-.5L264,35.31l-1.6-.37-1.6.62Z"/><path id="bell" class="cls-1" d="M267.84,33.08l-1.35-.25-1.23,1.24.62,1.12.37,1.73,1.6-1.23.37-1.37-.38-1.24Z"/><path id="novaya_zemlya_north" data-name="novaya zemlya north" class="cls-1" d="M275.35,46.22,275,48l-2.83,2.48-6,1.36L261.19,60l-.86,2.36,4.92,1.25.74-3L267.47,56l3.81-2,3.2-2.48,2.34-1h1.23V47.22l-2.7-1Z"/><path id="novaya_zemlya_south" data-name="novaya zemlya south" class="cls-1" d="M259.48,64.32l3.32.37,1.11,3.85,2.83,3-1,2H264l-1.6-1.86-3.57-.12-1.48-2V68.17l2.22-.62-.12-3.23Z"/><path id="komsomolets" class="cls-1" d="M311.41,22l-1.6-1H308l-.37,1.11-2,1.12-1.48.49-.24,1.49,3.44.25L311.41,22Z"/><path id="october" class="cls-1" d="M315.22,22.42l-.87,1.85-1.72-.12-2.71,2-.73,2.48h1.72l1-1.62,2.34,1.74,2.22-1,1.6-1.37-.62-2.11-.86-1.48-1.35-.37Z"/><path id="bolshevik" class="cls-1" d="M318.79,23.78l.87,3.47L321,30.48l1.48-2.61,2.83-.62V25.4L323.47,24l-4.68-.25Z"/><path id="kotelny" class="cls-1" d="M386.31,18.22l1.92,1.62,1.37-.57L390,17l-2.8-1.94-1.85,1.21-4.48.41v2l-4.74.08V22.1l5.54,4.12,1.44-1-.32-2.91,3.53-.89L385.6,20l-1.28-1.29,2-.49Z"/><path id="novaya_sibir" data-name="novaya sibir" class="cls-1" d="M391.44,16.28l1.28,2.43,5-.57,1.36-1.78-.32-1.53-1.37-.57-1.28,1-3.68.81-1,.24Z"/><path id="lyakhovsky" class="cls-1" d="M391.12,25.73l-2.49-.64-1.43,1.53-.65,2.11,3.37-.33,2.57-1.29-1.37-1.38Z"/><path id="wrangel" class="cls-1" d="M455.57,11.76l-2.08-.64-2.4.88-1.2,1.78,1.52,2,4-1.77.8-.89-.65-1.38Z"/><path id="sri_lanka" data-name="sri lanka" class="cls-1" d="M344,229.22l.18,1.94.18,1.42-1.05.18.53,3.18,1.57.88,2.46-1.41-.7-3.35.17-1.24-2.28-2.11-1.06.51Z"/><path id="cuba" class="cls-1" d="M15.47,199.83v.9l3.8.08,1.8-1.05.28.77,3.73.9,3.31,3-.75,1,.13,1.19,2.77.69,2.76-1.25,1.25-1.25-1.8-.91-9.25-5.43-3.25-.35-4.78,1.67Z"/><path id="bimini" class="cls-1" d="M28.88,194.26,28,194l-.07,1.74L29,196.83l.75-1.11-.89-1.46Z"/><path id="andros" class="cls-1" d="M30.67,197l-1.24.7,1.17,1.67.62-.84L30.67,197Z"/><path id="inagua" class="cls-1" d="M34.68,198.23l-1.31-.08.13.84,1,1.39.83-.9-.62-1.25Z"/><path id="eleuthera" class="cls-1" d="M34.06,196.56l-2.14-.91-.42-2.16.83-.35.83,1.68.83.63.07,1.11Z"/><path id="grand_bahama" data-name="grand bahama" class="cls-1" d="M32,192.17l-1.11-.28-.21-1.39-1.17-.41.76-.77,1.38.49,1,.63L32,192.17Z"/><path id="jamaica" class="cls-1" d="M28.39,208.88l-2.48.63v.69l1.45.84h1.52l1-1.12-1.45-1Z"/><path id="irian_jaya" data-name="irian jaya" class="cls-1" d="M452.18,251.58l-3,.34-1.92,1.4.8,1.6,3.24.6v.6l-2.05,1.66,1,3.47,1,.06.86-3.4h1.58l.67,3.33,7.74,6.41.2,5,2.64,2.86,1.19-.06.27-17.67-4.5-3.13-4.23,2.87-1.53.94-2.51-1.6-.07-5.07-1.39-.21Z"/><path id="banks" class="cls-1" d="M3.24,34.72l.16,2.87L-2.31,43.5l1.43,4.79,4.12-1.11,2.38-3.52,6-2.24,4.9-.32L12.74,37l-1.9,1.44-1.43-.48-.79-1.76L6.88,34.39l-3.64.33Z"/><path id="prince_patrick" data-name="prince patrick" class="cls-1" d="M10.68,26.26,9.42,28.5l6.18,2.23,2.22-3.35.95,2.24h1.58l3-3.35-3.64-1-1.43-1.12-1.9,1.92-5.71.15Z"/><path id="eglinton" class="cls-1" d="M21.46,30.73l-4.91,2.08V34.4l6.34,2.39-1.43,1.6.95,2.07,4-1.76H29.7l1.59,2.55L34,38.54,33.35,36l-2.22.8-.31-3.2,1.1-1.91h-1.1l-1.75,1.11-.79.64.48,2.24-1.27,1-1.9-.16-.48-2.88-3.65-2.85Z"/><path id="mackenzie_king" data-name="mackenzie king" class="cls-1" d="M28,25.78l-.48,1.59,3,1.44,2.21-1.28-.15-1L28,25.78Z"/><path id="king_christian" data-name="king christian" class="cls-1" d="M30.33,23.07l-2.21.8L28.27,25l4.91-.32L33,23.54l-2.69-.47Z"/><path id="ellef_ringnes" data-name="ellef ringnes" class="cls-1" d="M41,25.78l-.31,1.12L39.84,28V29.6l3-.47L46,31.84h1.1V29.13L44,25.61l-3,.17Z"/><path id="amund_ringnes" data-name="amund ringnes" class="cls-1" d="M49,29l1.27,1.43-1.11,1.92L50,34.4l3.49-1.92V31.05l-2.06-2.4L49,29Z"/><path id="axel_heiberg" data-name="axel heiberg" class="cls-1" d="M53.63,25.3l.16,2.55h4.28l1.1,1L59,29.93l-3.81.47,2.7,3.68,3.64.63,5.07-2.23-7.29-11-2.21,1.43.15,1.92-2.53-1L53.63,25.3Z"/><path id="victoria" class="cls-1" d="M16.71,43.35l-6,1.59L7.2,48l.32,3.35,6.34,1.91-1.43,3.2-4.6-2.87L6.57,56l3,2.07-.16,3.35L14,62.66l5.54-.32,1-1.76,4.12,4.64,2.85-1,.48-3.2L30,62.5l.31-3.19-2.54-1.6L28,47.66,25.74,45.9l-2.38,3.19-6.65-5.74Z"/><path id="prince_of_wales" data-name="prince of wales" class="cls-1" d="M36,50.37l-2.06-1-1.11,1.44,2.22,3.52.16,3.35L40,54.85V50.69l1.74-1.75L40,47.66H37.15L36,50.37Z"/><path id="prescott" class="cls-1" d="M46.18,48.94l-3.33,2.71L43.64,55H45.7l.95-1.76,1.43,1.44,1.43-.16,3.8-3.19-7.13-2.39Z"/><path id="cornwallis" class="cls-1" d="M45.86,43.66l-.79,1.6,3.48,1.27,1-1.43-3.64-1.44Z"/><path id="bathurst" class="cls-1" d="M43.8,37.59l-3.49.48L38.26,40l3.8.16L41,43l.79,1.28,1.11-.16,2.7-4.31L43.8,37.59Z"/><path id="devon" class="cls-1" d="M49.83,36.48l-1.9.64.31,2.55,3.17,2.07.15,1.59-1,1,.48,3.19,12.2,4,3.33,1.12L70,49.71l-4-3.19-3.64,1L57.28,47l-1.9-1.92-.48-5.26-3.17-1.6-1.9-1.74Z"/><path id="baffin" class="cls-1" d="M59.8,53.09l-3.48-.32L52.2,54.36l-2.22,3,.64,8.3,6.81.33,6.5,3.19,4.59,5.27L72,74.32l-1,5-3.17,5.26-3.49,1.6-2.53-.48L60.6,84.53l-1.9,2.55.8,2.55,2.69.16,3.33-1.59,2.85,7.34,7.13,4.64L80.41,94l-4.11-6.7,2.38-2.72L82,90.12l6-5.27-1.1-2.39L82.8,83.74,80,75.91l2.69-4.46L77.25,65.7l-3,2.07-2.86-6.22-6,.8-1.59-7.5L58.88,58.2l-.48,4.15H55.71L56,58.68l3.78-5.59Z"/><path id="bylot" class="cls-1" d="M66.93,56l-1.26,1.28L66.78,59l5.23.63-3.33-3.51L66.93,56Z"/><path id="ellesmere" class="cls-1" d="M61.87,37.92v1.43l-3.49.8.95,1.6,4,1.59,4.44.48,3.16,2.24,3.17-1.76-2.22-2.24H74.7l1.74-1.91,4.28-.64v-1L78.34,37l.32-1.76,6.65,1.11,9.82-3.83-3.64-1.11,1-1.28H100l1.27-1.28L85.94,23.38,82.29,22.1l-4,2.87L73.9,21.3l-2.38-.16-.48,3-3-2.72-3.49,1.12.64,1.76,5.23,1.11L70.09,28l2.85,1.76,7-1.76.16,2.4-5.71,2.71L70.89,30.4l-3.17.32,3.17,4.47L69.3,36l-2.38-2.07L65.18,35l1.58,3h2.7l-.64,2.87-2.21-.32-2.86-3-1.88.34Z"/><path id="southhampton" class="cls-1" d="M47.75,81.86l-3,3.8-.18,4.19,2.64-1.52h3.21l2.27,2.09,2.08-1.71-7-6.85Z"/><path id="newfoundland" class="cls-1" d="M84.56,131.31,77,138.55l.76,1.71L87,143.68l1.32-2.28-.76-3.8-3,.38-1.7-1.9,2.83-2.85-1.12-1.92Z"/><path id="canada" class="cls-1" d="M-29.29,43.85-27.86,46l.71,2.87,3.56.89,2.49-2.68L-19,48.16l6.05.53,4.28-1.79.71,5.92h2.5V50.31l2.49.18L3.3,57.84l4.1,2.51L5.26,63.76l.89.89,8,1.62.18,3.58,2.14.36L17,64.83l3.38-.89,2.5,3.76,5.34,2.51,2.67.54,1.78-2.15.18-3.41,3.2-2,1.06,2.88-2.85,5,.36,2.51,1.6-2.51,3.2-2.87.18-3.77L37.82,61.6l.54-2.33,4.27-2.15,2,1.43L45,71.11l3-2.69,1.78,1.08-2.5,4.31,3.21.71,4.63-7.18L59,71.47l-1.6,7.35L53.49,81l-3.74-1.79L43,80.62,43.7,83l-1.78,2.87-5.51,1.26-6.24,4.84-5.51,7.36-.72,2.33L27.68,103l1.42,3.59,5.16,5.2,8.19,3.59-1.78,8.25L40.49,126l2.14,1.43,2.85-3.76.36-7.18,4.45-.18,2.14-4.12.35-6.28,5.7-11.12L65.6,97.3l3.74,5.21-1.6,5.2,2.85,1.61,6.94-4.66,2,12.73,6.41,7.71.18,4L79,130.84l-3.39,3.59-7.11-1.62-3.56-.17-6.23,4.84,3.73-.89,4.63-.9.9,1.08-1.25,3.95.18,3.59L69,145.74l2.14-.53,1.07-1.62h1.42l-2.31,4.3-4.46.18-2,2.87h-2.5l-.71-2.15,3.56-3.58L61,146.64l-.19-6.09-1.23-.72-3.74,1.62-.36,3.05H46.92l-7.3,5-9.79,3.23-1.06-1.43L33.7,144l-2.8-2.7-1.78-3.42-3.63-2.76-3.89-.32-7-4.88-50.54-8.31-.83-3.42-4.63-4.3v-3.59l.71-3.23-.36-1.79-1.78-1.8-.35-2.87,4.63-3.23-2.85-15.42-3.92-.18-3.56-4.67,19.55-33.22Z"/><path id="usa" class="cls-1" d="M-36,122.23l-.71,2.87-2.49-1.61H-40.5l-.71,3.05-8.73,19.55,2.32,17,2.85,1.44.53,4.66h5.88l5.69,4.3,11.22,1.08,1.24,5.74,1.78,1.26,2.49-2.51,2,.89,1.78,8.25,3,2,2.5-4.66L1,180l5,2.33,4.28.35.18-2.68,8.89.18,1.78,2,.36,4.48-1.06,2.51,1.24,4.3h2.67L27,189.31l-1.06-2L24.83,183l1.61-4.84,7.29-6.28,5.52-1.61-.72-5.21,7.66-8.25,7.65-1.26-1.24-4.29,7.47-4.3v-5.74l-.71-.36-2.67.89-.36,3.52-8.88.11-7,4.62L29.56,153.6l-1.75-2.13,5-7.51-2.45-2.33-1.66-3.18-3.45-2.77-3.76-.31-7.08-4.84L-36,122.23Z"/><path id="guatemala" class="cls-1" d="M-3.09,217.41l4.24,3.1,4.28-5.31-.73-1.1-1.46,0v-3.11l-1.1-.67-3.3,1L.1,214.18l-3.19,3.23Z"/><path id="honduras" class="cls-1" d="M6,215.45l6.6-.25,2,2.33-1.22-.28-2.35.1-3.08,2.89-1.31,2.92-.87-.46v-3.2l-1.9-1.27L6,215.45Z"/><path id="el_salvador" data-name="el salvador" class="cls-1" d="M1.75,220.8l3.36,1.67-.05-2.65-1.72-1-1.59,2Z"/><path id="nicaragua" class="cls-1" d="M13.25,217.83l1.57.31,0,3.21L13,226.55l-4.91-.48L7,223.56l1.46-3,2.76-2.58,2-.11Z"/><path id="costa_rica" data-name="costa rica" class="cls-1" d="M13,227,14,229l.8,1.07-1.08,3.22-2.07-1.45-3.39-3.1v-2.06L13,227Z"/><path id="panama" class="cls-1" d="M15.29,230.33l-1,3.26,3.45.9,2.14.42.36-2.52,2.29-1.16,2,1.05.8,1.28,1-.12.77-2.32-2.55-1.05-1.93-1-1.93,1.31-2.29,1.16L16,230.55l-.73-.22Z"/><path id="colombia" class="cls-1" d="M39,223.31l-1.47-.15-9.74,8-1,2.82-1.33.15L26,240.4l-3.39,8.32,3.68,3.13,4.73.3,3.24,4.76,4.72.15-.15,3.56h1.76l1.92-6.54-1.77-2.23.44-4.16,3.69-.3-.45-9.66-8.26-2.67-1.91-5.2L39,223.31Z"/><path id="venezuela" class="cls-1" d="M36.63,227.7l.32,1.85,2.32.73.53-3.4,2.45-2.54,2.45,2.87,5.64,1.54,4.77-1,3.26,4,2.45,1.53-2.69,4.1.9,3.1-1.54,1.9-1.59,1.34L52.45,242l-.79.8v2.47l2.52,1.2-1.86,2-1.86,2-2.45-.2-2.46-2.71L45,237.38l-8.41-2.87L35.08,230l1.55-2.33Z"/><path id="guyana" class="cls-1" d="M61.35,233.56l5.16,4.68-2.05,2.37L64.3,242,67,244.8l-.06,2.67-4.69,1.79-2.81-3.8.6-4.56-1.2-3.39,2.52-3.95Z"/><path id="suriname" class="cls-1" d="M67.13,238.57l1.46,1.34,2.25-1.4,2.06.06-.26.81-.87,1.8-.13,4.48-4.11,1.67.2-2.87L65.08,242l.13-1.27,1.92-2.14Z"/><path id="guyane" class="cls-1" d="M73.56,239.05l4.18,2.6L75.55,246l-.79,1-2.32-1.34L72.5,241l1.06-1.93Z"/><path id="ecuador" class="cls-1" d="M22.15,249.09l-3.38,2.1-.24,3.11-.68,1,2.13,2-.92,1,.21,2.57,3.81.91L28.85,255v-2.38l-2.77-.18-3.92-3.38Z"/><path id="peru" class="cls-1" d="M18.46,258.86l-1.39,1.4.1,2.23,12.1,22.07,12.57,8.11,1.95-3.26.46-7.17-1-4.47L39.81,272l-2,.65-.92,1L32.79,269l1-5.49,4.72-3.08-.37-2.88-4.8-.19-2.5-4.19-1.38-.46.09,2.51-6.19,7.36-4.62-1.12-.29-2.61Z"/><path id="bolivia" class="cls-1" d="M42.53,275.49l5.88-2.57,2,.19,1.29,5.4,9,3,1.48,4.57,3.69.46,1.58,3.91L66.25,294l-6,.46L58,300.11,53.31,300l-1.48-.28-2.73,2.65-1.34-.13-4.62-10.72,1.28-1.91.45-7.58-1.15-4.51-1.19-2.05Z"/><path id="paraguay" class="cls-1" d="M66.15,294.58l1.57,1.72-.18,3.63,4.53-.28L75.49,304l-.28,3.91L73,311.29l-4.54.19-.18-1.87,1.29-3.07-4.44-2.8H61.44l-2.77-3,2-5.76,5.47-.42Z"/><path id="uruguay" class="cls-1" d="M72.29,317.75l-1.46,1.57.61,8.41,4.6,1.34,5.85-5.87-9.6-5.45Z"/><path id="argentina" class="cls-1" d="M76,307.94l1.38,1.3-5.26,7.82-1.85,2.06.64,8.94L74.92,333l-3.41,6-2.59,1.12H66l.83,4.65-4.62,1.59,1.11,3.91-2.78,8.84,3.43,2.8-1.85,4.56-3.15,4.94,1.67,3.44-4.07.65-3.33-4.09-.56-12.76-5.17-21.67L49,329.36l-3.33-9.69,2.22-12.57,2-2.42-.5-1.84,2.62-2.38,5.83.4,3.26,3.48,3.77.06,3.86,2.36-1.14,2.66.27,2.68,5.47-.25L76,307.94Z"/><path id="tierra_del_fuego_chile" data-name="tierra del fuego chile" class="cls-1" d="M61.35,376.47l-3.06,6.71,5.27.55.09-4.46-2.3-2.8Z"/><path id="tierra_del_fuego_argentina" data-name="tierra del fuego argentina" class="cls-1" d="M64.12,379.82l.18,4.1,3.15-.28,2.68-1.77-4.53-.93-1.48-1.12Z"/><path id="chile" class="cls-1" d="M60.31,375.42,58,378l-.28,3-4.44-2.52-4.72-6.79-1.38-2.42,1.94-2.52L49,363.52l-2.21-.93L45,361.29l.37-1.77,2.31-.65.47-10.24-3.61-2.05-2.35-53.31.61-1,4.6,10.61,1.47,0,.48,1.69-2,2.37-2.25,12.77,3.21,9.84L46.85,337l5.21,21.9.55,12.81L56.35,376l4-.58Z"/><path id="chiloe" class="cls-1" d="M45.08,348.63,44.16,350l.46,2.43.93.09.46-3.07-.93-.84Z"/><path id="brazil" class="cls-1" d="M82.21,322.7l4.47-8.59.16-7.22,8.34-5.38h4.66l3.67-6.21.67-11.92-1.51-3.18,8.84-8.07.33-8.89-12-5.88-14.49-4.53-6.83-.67,1.84-3.86-.5-5.87-1.5-.5-2.21,4.39L75,247.77l-3-1.31L62,250l-3.34-4.19.54-4.39-3.14,3.21-3.48-1.88-.35.5v1.52l3,1.61-4.49,4.74-2.84,0-2.87-2.93-3.25.1-.4,3.48L43.27,254,41.07,261l-2.57.2-4.1,2.58-1,5.08L37,272.71l.65-.74,2.49-.67,2.13,3.59,6.1-2.62,2.36.14,1.63,5.76,8.7,2.76,1.5,4.6,3.7.45L68,290.37l-1.2,3.91,1.56,2.05-.23,3,4.17-.39,3.83,4.83-.3,3.39,2.26,1.92-5.43,8.22,9.56,5.36Z"/><path id="belize" class="cls-1" d="M3.83,210.89l0,2.61h.6l2-3.82H5.05l-1.22,1.21Z"/><path id="russia" class="cls-1" d="M442.2,61.19l1.26,4.35,2.52.72,2.51-4-1.43-2.72.53-2.35h3.78l-.9,1.81.35,6.52-5.39,13.39.54,2.89-.18,4.89,10.06,14.66,2,.54L458,90l2-1.81-2.16-4.7,1.8-2-4-5.25-2.15.18-.72-8.68,5.57-1.45.35-2.54,2.88-.72,1.61,1.45,2-8,3.4-5.79,2.7-1.45,2.34.18V46.72L469.83,46l-5.21-4.35,2.52-2.89L465,33.87l1.79-1.81,2.16,2.9,5.39,2,5.92.54L481,35l-3.06-3.07,3.41-4.7-7.72-2.72-2,4-2.52-3.26-14.19-4.88-13.47,2.35-2,1.08v1.09l2.87,1.45L442,29.72l-5.21-2.17L425.3,32.07l-2-4.16h-7.9l-3.6,3.8-12.75-2.89L387.4,31.17,386,34.79l1.79.54L387.58,38l-11.31,1.27.72,3.62-10.42-1.81,2.52-4.71-10.6-.54.9,4.89L356,42.39l-2.87-2.72-11.67,2L337,45.83l-.18,2.53-2.87.18-.36-2.9,9.16-8V32.25l-5.92-1.63-7.73,2.53-3.23-3.26h-1.43l-1.8,3.62L324,35.14l-10.24,5.61L305,47.44l-5.39,7.42v3.07l5.75,2.35-2.87,2.18-6.11-2.18-2.51,2.18-3.78-4.35-.72,1.63,4.13,13,1.08.36,2.87-1.45,1.44,1.09v2.35L296.19,74l-1.62,1.27,1.08,2.35-.9,6.15-5.57.55-.35-2,3.23-2,.72-5.43-3.6-4.71-1.25-8.13-5.75-.91-.54,2.89,1.08,1.45-2.33,2,.9,5.43,3.41,1.45.72,4L282,76.21l-8.8-1.63-1.08,2.89-7,2.53L264,78.19l-9.16,5.07-.18,3.44-3.59.54,1.08-2.53V82.18l-3.6-1.26-2.34.9,2,3.81,1.43,2.53v2L247,89.61l-.54-.55L243.74,92l1.44,2.53-6.11-.18,2,2.54-.53,1.08h-3.23l-2.34-1.63-.53-4.52-3.78-1.45V88.52l7.91,1.63,4.31.36,1.79-2.71L243,84.9l-11.49-4.52-4,1-1.36,1.16.42,2.68,1.69.29-.4,4.22,5.21,12.22-3.76,6-.26,1.34,1.91,1.35-1.72,1.13-1.15,0,.22,5.25,1.58,2.24,0,2.17,2,.18,3.09,1.18,3.28,4.51,0,1.18-1.06,1.82,2.44-.13,2.38.68,3.22,4.56,7.92.72-.35,5.42-2.73,2.33.57.92-2.7,2.89-.71,2.72,1.61,2.35,5.21,1.81,2.16-1.27,13.83,5.25.54-1.45-2.88-2.72v-3.44l-1.79-.54.36-2.89,2.87-3.44-5.15-3.86.35-5.37L270,131.2l6.47.36,1.08,2,6.65.36,4.85-2.71-2.52-2.72.54-5.07,12.57-6.15,9.67,4.36,3.23-2.89,9.52,9,7.18-.72,2.52,2.53,6.82.72,4.49-6.15,5.75,2.54,3.05.54,3.05-2.72-2.69-1.8,2.33-3.62,6.65,2.17,1.43,2.9,2.88.18,1.79-1.27,4.85-.18.54,1.27,5.57.36,3.77-4,7.73.91,2.33-.91.72-4.34L390.47,111l2.34-2h7.36l7,8.32,9,5.07h2.69l.36-2.17,3.23-2,.36,11.77-2.88.17V133l1.62,2-.3,2.59,1.19.49.72-1.81,1.08.37.72.72,3.23-.72,3.23-9.41.36-11.77-4.14-9.41-5.2-6.33-2.52.36v2l-6.1-2.35,2.33-5.07,2-13.39,8.26-2.53,3.95-2.53h4.31l-1.08,1.45,1.08,1.81,3.77-4,2.16.17-.36-2.35-3.41-.72,2.33-8.5,3.08-2.92Z"/><path id="china" class="cls-1" d="M336.74,130.61l-2.47,6.22-3.41-.18-3.59,7.87,3.05,3.89L324,157.09l-3.23-.54-2.16,2.71.54,1.63,2.51.18L323,164l2.52.54,7.72,10v5.07l3.77,2.35,4.14-.72,5.21,3.07,6.28,1.81,3.06-.36,3.41-.37,7.18-4.7,2.34.36.89,2.13,2,.59,2.7,4-1.8,4,1.08,2.72,3.05,1.08.54,3.26,3.6.37.53-1.63,5.21-2.72,3.23.18,3.77,4.16,2.52-1.09,1.62.18.72,2,1.26.17,1.79-2.53,7.18-2.71,6.47-7.78,2.16-7.42L416.9,175l-2.7-.54,1.62-1.81-.36-2.9-6.82-6.87v-3.44l2-2.53,2-.91.18-2h-5l-.9,2.72-2.34-.55-2.87-3.07,1.79-4.7,2.52-2.72,2.34.18-.36,4.16,1.26,1.09,3.05-3.08,1.08-.18-.36-2.35,2.87-3.43,2.16.17,1.26-4,1.47-.78.15-2.47-1.43-1.51-.12-3.91,2.75-.18-.18-10.1-1.93,1.16-.72,2.59H416l-9.34-5.25-6.75-8.14-6.85-.07-1.74,1.52,2.22,5.07-.78,4.76L390,122.09l-1.55-.12-.12,4.71,1.62.37,2.87-1.27,3.77,1.81v1.81l-2.69.18-2.16,4.7-2,.18-7,9.22-7.36,3.26-5,.37L367,145l-4.85,2.53-5.21-1.63-1.26-3.43-8.79-.55-4.67-7.59h-2l-1.59-3.53Z"/><path id="mongolia" class="cls-1" d="M339.17,130.68l4.16-5.51,5,2.31,3.39.9,4.16-3.81-2.82-2.08,1.86-2.63,5.54,2,1.92,3.15,3.48.1,1.81-1.35,3.74-.15.82,1.38,6.21.32,3.93-4,5.43.57-.31,5.46,2.38.54,2.92-1.33,3.1,1.53-.07.77-2.25.07-2.33,4.9-1.82.18-7.06,9.23-7.21,3.18-4.51.35-3.75-2.42-4.78,2.56-4.72-1.47L356.05,142l-8.93-.63-4.57-7.75-2.23-.14-1.15-2.76Z"/><path id="north_korea" data-name="north korea" class="cls-1" d="M413.84,147.91l1.31.55.4,4.6,2.61.15,2.46-2.88-.85-.76.1-3.08,2.26-2.73L421,141.68l.75-.85.41-2.15-1.3-.59-1.12.56-1.38,4.19-2.23-.19-2.58,3,.31,2.22Z"/><path id="south_korea" data-name="south korea" class="cls-1" d="M421,150.72l4.42,3.6.75,3.49-.15,1.87-2.16,2.43-1.86.1-2.11-4.55-.8-2.18.85-.65-.2-.91-1-.47,2.31-2.73Z"/><path id="kazakhstan" class="cls-1" d="M269.77,143.87l2.93-1.25,3.28-.12.23,5h-1.92l-1.46,2.38,1.91,3.18,2.82,1.6.26,1.82,1-.34.95-1.14,1.58.34.8,1.6h2v-2L283,151.27l-.56-3,3.61-1.59,4.85.79,3,3.07,6.89-.68,3.83,5.45,4.51.23,1.25-2,1.58-.34.23-2.28,2.36-.11,1.24,1.48,1.25-2.95,10.71,1.48,1.8-2.39-3-3.75,4.06-8.86,3.27.22,2.26-5.45-4.51-.46-2.6-2.5-7.14.83-9.21-8.9-3.24,2.88L299.57,118l-12.07,5.91-.34,4.2,2.82,3.29-5.5,3.11-7.14-.15-1.49-2.2-5.6-.31-5.3,3.41-.11,4.66,4.93,4Z"/><path id="turkmenistan" class="cls-1" d="M282,157.43l-.45,1.88h-3v2.54l3.19,2.1-1,2.88v1.33l1.32.22,1.76-2.32,4-.89,8.46,3.21.11,2.32,4.72.45,5.27-5.54-.65-1.77-3.52-.78-9.89-6.42-.44-2.32h-3.74l-1.65,3.1H282Z"/><path id="uzbekistan" class="cls-1" d="M307.1,165.62l2.2.12V162l-2.09-1.21,3.52-4.43h1.43l1.43,1.66,3.74-1.44-5.17-1.77-.2-1.07-1.23.3-1.21,2.1-5.21-.17-3.82-5.41-6.72.66-3.2-3.17-4.43-.75-3.22,1.31,1.87,6.2,0,2.09,1.36,0,1.66-3.18,4.43.06.66,2.44,9.5,6.3,3.67.85,1,2.25Z"/><path id="tajikistan" class="cls-1" d="M308,160.46l2.93-3.64h1.11l.39.81-1.36,1v.81l.89.65,4.3.25,1.4-.6.64.13.42,1.38,2.56.25,1.27,2.7-.38.82-.51,0-.51-1-1.1-.08-1.92.25L318,166l-1.91-.12.08-2.28-1.4-1.37L312.65,164l.05,1.16-1.88.64h-1.1l.08-4L308,160.46Z"/><path id="kirgizstan" class="cls-1" d="M312.74,151.44l-.22,1.81.18,1.11,6.21,2.09-5.46,2.2-.62-.52-1.18.76.06.42.63.28,3.83.1,1.94-.58,2.5-3.15,3.12.54,3.77-5.21-10.08-1.37L316,153.3l-1.76-1.89-1.53,0Z"/><path id="afghanistan" class="cls-1" d="M296.52,171.33l1.14,8.91,2.83.62.26,1.6-2,1.69,3.78,3.06,7.35-2.65.59-3.13,4.62-2.89,1.77-6.68,1.33-1.43-1.38-2.38,4.48-2.77-.58-.8-2.06.13-.19,1.9-2.77,0-.05-2.54-.89-1.06-1.5,1.36,0,1.25-2.27.86-4.18-.26-5.43,5.69-4.86-.45Z"/><path id="pakistan" class="cls-1" d="M303,187.62l1.86,2.76-.18,1.42-2.47,1L302,195.1h2.83l1-.8h5.39l4.86,4.27.62-2h3.62l.09-2.58-3.71-3.56.79-2,3.81-.26,5.12-10.69-2.83-2.22-1.06-3.74,6.89-.62-4.06-5.79-2.17-.58-.89,1.07-.66,0-4.07,2.58,1.33,2.23-1.5,1.6-1.86,6.85-4.59,2.94-.62,3.21L303,187.62Z"/><path id="india" class="cls-1" d="M337.16,232.76l3.27-1.6,1.94-7-.08-8.63,11.13-12v-2.85l2.3-.9-.09-3.29-2.47-4.81,1.41-2.58,3.1,2.85,4,.18v1.6L360.41,195l.26.71,2.12.09.45,2.4h.62l1.59-2.85.79-7.48L368.9,186l.08-2.58-1.06-2.05-1.68-.09-6.57,4.35.41,2.79h-4.61l-1.63-2-.89.12.3,2.77-10-.71-6.19-2.76-.33-3.4-4.12-2.56-.05-5.26-2.83-3.24-6.51.62.71,2.83,3.19,2.58-5.51,11.28-3.69.28-.61,1.36,3.63,3.35-.17,3.4-3.71-.06-.4,1.69,3.08-.14.08,1.34-2.21,1.16,1.42,2.67,2.74.89,1.67-1.24.8-2.22,1-.45,1.15,1.16-.35,2.85-.79,1.34.18,2.32,11.74,24.36Z"/><path id="nepal" class="cls-1" d="M337.31,182.42l.33,3.05,5.77,2.61,9.26.69-.35-2.24-6.19-1.7-5.24-3.12-3.58.71Z"/><path id="bhutan" class="cls-1" d="M354.61,186.36l1.11,1.52,3.74,0-.38-2.08-4.47.53Z"/><path id="bangladesh" class="cls-1" d="M354.73,190l-.94,1.69,2.43,4.62.08,3.6.44,1,2.85,0,1.62-1.55,1.17.71.23,2.19.94-.58.06-2.8-.79-.1-.49-2.38-2-.07-.49-1.32,1.21-1.62,0-.8h-3.53l-2.82-2.6Z"/><path id="burma" class="cls-1" d="M378.94,226.08l-2-3.18,1.43-2-1.36-2.5-1.27-.24-.25-4.19-1.91-3.71-.56.89-1.28,2.17-1.6.24-.8-1.05-.4-2.82-1.2-2.26-4.89-4.61,1.2-.79.22-3.34,1.79-3,.77-7.47,2.59-1.76.08-2.72,1.55.51,2.45,3.54-1.82,3.89,1.23,3.05,3,1.18.55,3.33,4.06.62-1.12,1.94-5.12,2-.56,3.3,3.76,4.83.16,2.58-.88.89.08.8,2.8,4.11.08,4.27-.82,1.49Z"/><path id="thailand" class="cls-1" d="M379.36,202.36l2.31,3V209l.8.4,3.68-1.78.73.25,4.39,5.07-.16,3.47-1.43-.25-1.28-.8-1,.08-1.68,2.81.32,1.53,1.36.72-.08,1.7-1,.48-3.28-2.26v-2l-1.35-.08-.56.89-.29,9,2.13,3.87,3.75,3.62-.15,1.05-2-.08-1.84-2.73h-1.92l-2.4-1.94-.73-2,1-1.69.36-1.53,1.13-2-.05-4.6-2.76-4-.12-.49.9-.9-.21-3.16L374.38,207l.43-2.68,4.55-1.93Z"/><path id="malaysia" class="cls-1" d="M381.27,234.51l1.44,3.22.32,4.19,1.92,3,4.64,2.82,1.76.16L391,245l-1.52-3.7-2.23-4.74-.19.83-2.69-.12-1.93-2.78-1.2,0Z"/><path id="cambodia" class="cls-1" d="M386.83,223.09l2.92,3.12,5.44-4,.48-6.36-2.81,1.94-1.46-.82-2-.26-1.11-.78-.53,0-1.45,2.38.23,1.1,1.47.82-.18,2.24-1,.62Z"/><path id="laos" class="cls-1" d="M383.25,197l-1.73.88L380.08,202l2.4,3.06-.4,3.38.4.17,4-1.94,5.36,6-.13,3.77,1.16.63,2.88-2.34-.23-1.85L387.2,205l.08-1.2,1-.72-.72-2-3.44-.56-.91-3.54Z"/><path id="vietnam" class="cls-2" d="M390.1,226.65,391,228l.16,1.53,2.23.25,2.72-3.63,2.56-.72,1.36-3.7-.64-6-2.64-3.62-2.78-2.23-3.54-6.07,2.54-4.25-3.63-4.16-2.91-.13-2.61,1.41.78,3.36,3.48.62.94,2.59-1.23.8.08.64,8.18,8,.32,2.35-.49,7.43-5.73,4.15Z"/><path id="georgia" class="cls-1" d="M254.6,155l2.34,3.05,2.91,1.34h1.8l3.08-.83.77-1.21-9.11-3.41L254.6,155Z"/><path id="armenia" class="cls-1" d="M264.79,159.07l3.43,4.47-1,1.18-2.42-.42-3-2.7.16-1.77,2.86-.76Z"/><path id="azerbaijan" class="cls-1" d="M266,157.52l-.72,1.23,3.36,4.41,1.18-.37,1.93,2,.83-3.55,2.1.34-.09-1-3.44-3-.66,1.77L266,157.52Z"/><path id="iran" class="cls-1" d="M264.74,164.83l-.87.91.09,1.43L265,168.7l3.85,4.21-.58,1.69h-.67l-.34,1.69,2.18,2.78,2,.17,4,5.57,2.26.17,1.76,1.27.08,2.53,7,4.05h2.59l1.6-1.35,2-.09,1.18,2.7,7.51,1,.22-2.76,2.49-.9.11-1-2-2.7-4.41-3.54,2.32-2.11-.17-.93-2.9-.45L295.9,171l-.14-2.25-7.87-3-3.49.79-1.95,2.39-1.73-.12-.5.43-3.85-.25-4.86-3.55-1.81-2-.83.2-1.49,1.71-2.64-.5Z"/><path id="turkey" class="cls-1" d="M256.92,158.57l-1.6,1.69-5.86-.18L246,158l-3.43-.09-3.94,2.79-3.69.17-.33,2.11h-4.19l-1.67,1.52v.84l1,.85v.93l-.42,1.1.42.93,1.35-.68,1.34,1.44-.34,1-.5.68.75.85,3.69.75,2.6-1.1v-1.6l1.25.25,3,1.78,3.27-.51,1.42-1.35.92.33v1.53h1.26l1.08-2.11,9.55-1,4.17-.51-1.1-1.44,0-2,.83-1-3-2.44.16-2.11h-1.67l-2.77-1.36Z"/><path id="yemen" class="cls-1" d="M266.41,215.77l1,3.06v3l2.48,2.24,17.42-7.1.16-2-2.79-5-7,2.23-4,4L269,213.43l-2.6,2.34Z"/><path id="oman" class="cls-1" d="M285.27,209.77l5.29-3,.93-4.47-1.16-.66.48-4.79,1-.59,1.08,1.7,6.42,3.36v1.86l-7.78,11.46-3.58.12-2.69-4.95Z"/><path id="emirates" class="cls-1" d="M282.15,198.41l.62,2.49,7.05.62.49-5.1,1.36-.75.37-1.86-2.22.62-2.47,3.74-5.2.24Z"/><path id="qatar" class="cls-1" d="M281.16,194.18l-.37,2.87,1.1.83,1-.09.38-3.61-.87-.62-1.24.62Z"/><path id="kuwait" class="cls-1" d="M274.49,185.71l-1.61-.87L271.77,186l.12,2.25,2.59,1v-3.49Z"/><path id="saudi" class="cls-1" d="M275,190.05l5,7,1.61,1.29.72,3.13,7.72.61.87.45-.87,3.86-5.06,3-7.42,2.24-3.95,3.86-4.69-2.73-2.85,2.48-4-6.46-2.71-1.25-1-1.49v-3.24l-9.88-12-.37-2.11H251l3.46-3,.12-1.49-1-1,2-1.61,4.21.25,7.16,6,4.24-.19.27,1,3.53,1.36Z"/><path id="syria" class="cls-1" d="M248.32,172.82l-.25,1.82,2,.84-.08,5,2,0,2-1.53.76-.12,4.57-3.64.92-5.28-9.14.93-1,2.11-1.86-.12Z"/><path id="iraq" class="cls-1" d="M260.93,169.89l-1.12,5.51-4.62,3.84.3,1.82,4.51.31,7.18,5.84,4-.11.1-1.35,1.47-1.58,2.06,1.16.27-.25-4-5.3-1.88-.11-2.51-3.23.5-2.37.76-.1.27-1.05-3.42-3.59-3.91.56Z"/><path id="jordan" class="cls-1" d="M249.91,181.15l-1.75,6.13-.08.93h2.76l3.1-2.73.08-1-1.27-1.3,2.27-1.88-.33-1.74-.62.14L252.18,181l-2.27.13Z"/><path id="lebanon" class="cls-1" d="M248,175.19l.05,1.39-.59,2.11,2,.18.12-3-1.6-.67Z"/><path id="israel" class="cls-1" d="M247.35,179.2l-1.12,3.6,1.46,4.31,1.68-6.3v-1.35l-2-.26Z"/><path id="cyprus" class="cls-1" d="M245.85,173.33l.88.63L244,176.54l-1.3,0-1-.68.13-1.26,2-.13,2-1.1Z"/><path id="norway" class="cls-1" d="M226,82.07,227.46,81l-.13-1.19-.91-.53.12-1.45h.79v-.79l-3.41-.92-5.11.53-.52,2.24-1.18-.39-.79-1.32-2.49.12-.26,2.51-1.18.53L211.73,79l-5.25,4.22,1.05,1.19-2,.92-4.46,8.85-1.57,1.06.13.79,1.57.79-.39,1.72-2.63-.14-.78-.92-1.7,2-1.05.79-.27,1.85-.91.53-2.36.53-1.18,3.7.78,6.08.92,2.77,1.05,1.06,2.36-.13,3.41-3.3,1.31-2.25.39,3.31,2.23-4,.13-11.1,1.81-1.15.54-6.12,5.51-7.93,2.62-.92,1.18-1.45,3.93.92,2,1.19.65-3.3,3.28-2,2,3.44Z"/><path id="britain" class="cls-1" d="M176.46,115.61l-1.31,2,.53.8h3v1.32l-.78,1.05.52,2.78,1.7,3.3,1.31,3,2.09.79.91,1.59-.12,1.45-1.31.79-.13.66.91.53-.78,1.05-1.84.8-3.54-.4-5.51,2.51-1.83-.92,5.24-3-.65-.39-2.76-.26,1.7-2.51.27-2.12,2.23-.26-.39-4.1-2.63-.13-.78-.92.13-3-1.58.12,1.58-5.28,2.88-2.11.93.91Z"/><path id="ulster" class="cls-1" d="M171,124.47l-2.36.26-.13,2.12L170,127.9l1.71-.39.65-1.19L171,124.47Z"/><path id="ireland" class="cls-1" d="M171.74,128.1l-.65,4.29-5.77,2.11h-1.84l-1.3-.92v-.79l2.88-1.86-.78-1.58.13-2.25,2.49.13,1.14-2.68-.15,2.38,1.94,1.54,1.91-.37Z"/><path id="sweden" class="cls-1" d="M213.34,83.81l1.4,1.29h2.62l1.44,2.78.4,4.75-3.54,2.51v2.51l-2.49,3.43-1.45.13-2,3.3.13,3.18,3.4,2.51-.26,1.45-1.31,2-2,1.71.13,5.68-3,1.06-1.05,2.24h-1.44l-.79-4-3.28-5,2.69-4.51.19-11.14,1.86-1,.45-6.37,5.29-7.59,2.55-.89Z"/><path id="finland" class="cls-1" d="M219.82,92.64l1.48.65.91,1.72-.91,1.19-4.59,5-.79,2.65,1.06,3.83,3.53,2.64,4.72-2.24,3.8-.53,3.54-5.68L230,95.67l-2.5-6,.4-3.83-1.58-.26-.4-2.8-2.12-3.45L221.41,81l-.93,3.77L218,83.27l-3.46-.84-.77.9,1.33,1.2,2.42,0,1.95,3.15.35,5Z"/><path id="path302" class="cls-1" d="M227.88,117.25l-4.89-.79.1,2.73,4.54,2.78,1.86-.55-.11-2.08-1.5-2.09Z"/><path id="hiumaa" class="cls-1" d="M219.8,114.58l-1.11,0-.64.65.46.68,1.11.08.57-.83-.39-.55Z"/><path id="saaremaa" class="cls-1" d="M219.69,117.5l-1.07-.11-1.93,2.31v1.08l.64.25,1.25,0,2.08-1.7.28-.58-1.25-1.29Z"/><path id="lithuania" class="cls-1" d="M222.69,119.63l-1.53,0-2.11,2h-1.79l.11,2.52-1.07,2,3.86,0,1.1-.15,1.11,1.34,2.54-.11,2.43-3.09-.15-1.84-4.5-2.67Z"/><path id="belarus" class="cls-1" d="M222.59,127.91l1.07,1.77-.43,1.4.07,1.12.39,1.34,2.22-1.26,2.75.07,1.93.79h4.89l1.43-3.42.86-1.29v-.87l-3.07-4.32L232,122.16l-2.21-.25-1.93.61.07,2-2.68,3.38-2.64.06Z"/><path id="poland" class="cls-1" d="M223.16,134l.6,1.12.15,1.19-.5,1.15-1.15,2.2-1,.43-1.25-.54-.75,0-1.82.68-2.08-.61L212,137.24l-3.28-1.77-1.33-2-.25-4.76,2.58-2.23,3.36-1.12,1.25-.14-.5,1,.32.39,5.65.11,1.22,0,2,3.07-.5,1.26.21,1.48.39,1.47Z"/><path id="spain" class="cls-1" d="M178.06,155.58H169l-1.84-.83-.88.06L165.16,157l.38,2.29,3.48.33.45,1.46L168,169.66l.06,1.53,2.47,1.34,2.84.19,5.69-1.4,2.78-3.5.07-3.57,4.93-4.46.25-2-4.49-.06-4.49-2.18Z"/><path id="portugal" class="cls-1" d="M165.61,160l-.45,6.19-1.26,1.14.13.7.88,1.47-.57,1.78.95.32,2.22-.25-.13-1.79,1.45-8.28-.32-1.15-2.9-.13Z"/><path id="majorca" class="cls-1" d="M187.17,164.3l-1.14.39.25,1h1.64l.7-.77-1.45-.64Z"/><path id="sardinia" class="cls-1" d="M198.93,161.56l-1.89,1,.25,3.7,1.51.25,1.14-1.08v-3.5l-1-.33Z"/><path id="corsica" class="cls-1" d="M199.12,157l-1.39,1.4-.13,1.27,1.14.7.44-.07.25-1.85-.31-1.45Z"/><path id="france" class="cls-1" d="M186.67,136.78l-1.58.39-3.16,3.43-1,.07-1.27-.9-.82.2-.63,2-4.61.13.12,1,3.16,2.1,3.67,2.93-.06,3.5-2,3.44,4.24,2,4.3.13,1.33-1.53,2.71.06.76.7,2.72-.19,1.39-1.79-1.77-2.1-.13-1.34.38-1.46-.89-1.27-1.51.44-.2-1.14,3.35-3.7v-2.23l-2.21-1.27-1.14-.19-5.24-3.44Z"/><path id="netherlands" class="cls-1" d="M193.59,129.33l-3.24,1.59.69.62.07,1.6-.68-.14-.76-1.18-1.81,2.87,2.78.58,1,1.09h.55l.36-2.47,1.75-.74-.75-3.83Z"/><path id="belgium" class="cls-1" d="M187.53,135.22l-.46,1.15,4.92,3.24,1.42.34.05-1.54L192.22,137h-.76l-1-1.18-2.9-.62Z"/><path id="germany" class="cls-1" d="M194.34,129.05l2.55-.42v-1.8l2.14-.35,1.17,1.18,1.24.14,1.93-.84,1.72.49,1.52,1.31.2,4.93,1.52,2-2,.28-3.3,2.08.27.69,3,2.78-.2,1.38-2.76,1.39-2.55.07-.62,1.31h-1.31l-.62-1.38-2.27-.56-.07-2.29-1.93-1.31.21-1.67-1.31-1.8.34-2.36,1.79-.83-.62-4.43Z"/><path id="denmark" class="cls-1" d="M198.37,117.34l-3,3.28-.11,2.14,1.35,3.52,2.12-.4-.27-2.88,1.46-1.63,0-1.28-1-2.66-.52-.09Z"/><path id="sjælland" class="cls-1" d="M201.7,123.16l-.66,0-.87.8.1,1.25,2.07.06.11-1.42-.75-.66Z"/><path id="gotland" class="cls-1" d="M213.89,116.39l-1.51,1.19.76,1.76,1.33-1.31-.58-1.64Z"/><path id="switzerland" class="cls-1" d="M195.61,144.41l-3.12,3.32.07.33,1.27-.4,1.16,1.61,1.94-.69,1.34,1,.55-.31,1.66-2.6-.42-.4-1.64-.05-.79-1.62-2-.23Z"/><path id="czech" class="cls-1" d="M206.7,141.19h3.16l1.7,1.21,3.14-2.61-3-2.17-3-1.46-2.07.37-2.8,1.8,2.93,2.86Z"/><path id="slovakia" class="cls-1" d="M212,142.8l.5.44.06.74,5.45-.12,4-1.73-.06-1.77-.77.34-1.11-.59-.68,0-1.78.72-2.43-.59L212,142.8Z"/><path id="austria" class="cls-1" d="M201.12,144.94l-.46,1,.4.68,1.67-.34h1.41l1.54,1.3,3.26-.59,2.4-1.43.62-1-.09-1.24-2.16-1.62-2.9,0-.24,1.65-3,1.48-2.41.08Z"/><path id="hungary" class="cls-1" d="M212.64,144.57l-.83,1.3.06,2,1.32.68,4.07.12,5.67-4.78,0-1-.62-.31-4.09,1.86-5.61.19Z"/><path id="slovenia" class="cls-1" d="M211.25,146.28l-1.81,1.08-3.39.75.68,2,2.37,0,2.19-1.83,0-2Z"/><path id="croatia" class="cls-1" d="M211.84,148.54l-2.53,2.08h-2.55l-.31,1.8,1.17.31.59-.87.92.81.73,2.57,5.06,2.36.5-.57-5.13-5.29.53-1,4.86-.18.49-1.55-3.17.09-1.16-.59Z"/><path id="bosnia" class="cls-1" d="M211.25,151.24l-.26.44,4.79,4.95,1.76-2.59-.06-1-1.54-1.87-4.69.09Z"/><path id="italy" class="cls-1" d="M195.15,149.84l-.44,1.13.12,1.22,1.71,2,2.68-.09,5.93,6.89,3.71,1.07,2.18,2.07.53,4.7,1.17-.68,1-2.57-.25-1.84,1.74-.16.25-1-4.9-2.35L206,155.62l-1.85-2.73-.45-2.6,2.36-.56-.6-1.71L204,146.8l-1.25-.06-1.74.48-1.64,2.3-1,.66-1.53-.94-1.64.6Z"/><path id="sicily" class="cls-1" d="M209.56,168.45l-1-.55-3.54.55.12,1,3.18,1.6.48.52.84.13-.05-3.21Z"/><path id="malta" class="cls-1" d="M209.69,173.78l-1.2.24,0,1.32,1.07.36.48-.4-.4-1.52Z"/><path id="ukraine" class="cls-2" d="M226.09,132.81,224,134l.52,2.2-1.92,4,0,1.78.9.57,5.77.28,1.62-1.33,1.72.58,2.48,3.31-1.81,3.25,2.16.63L238.3,146l1.62.3,1.5,1-1.33,1.74,1.79,2.79h1.9l1-1.86,2-.41.05-1.5-3.74-.58.11-1.63h3.63l3.92-3.13,1.73-1.51.28-4.76-7.71-.69-3.17-4.47-2.19-.75-2.65.11-1.19,3-5.43.07-1.77-.82-2.56-.13Z"/><path id="moldova" class="cls-1" d="M229.8,143.22l2.21,3.41-.18,1.93.79,0,1.88-3.18-2.26-2.8-1.28-.53-1.16,1.14Z"/><path id="romania" class="cls-1" d="M223.67,143.14l-.18,1.06-4.14,3.44,3.46,5.08,2.21,1.55h4l1.31-1.1,1.77-.23,1.31.79,2.33-2.65-.45-1.33-2.36-.61-1.62-.08.08-2.27-2.14-3.37-5.57-.28Z"/><path id="montenegro" class="cls-1" d="M218.47,157.18l0-.67-.95-1.32L216,157.35l.3.91,1.24.22Z"/><path id="serbia" class="cls-1" d="M218.93,148.1l-1.46,1.1h-.72l-.48,1.52,1.73,2,.11,1.6-.24.34,1.17,1.65,0,.87.84.81,2.74-.83-.23-3.91Z"/><path id="bulgaria" class="cls-1" d="M223.14,153.71l.12,3.56,1.2,2.5,4.51.08,2-1.44,2-.79-.49-2.27.45-1.22-1-.53-1.39.12-1.1,1.1-4.59,0-1.72-1.14Z"/><path id="albania" class="cls-1" d="M217.84,159v3.29l.94,1.78.68-.08,1.17-2.12-.68-.95-.27-2.35-.9-.84-.94,1.27Z"/><path id="macedonia" class="cls-1" d="M222.77,157.73l-2.41.79.12,2,.56.73L223.9,160l-1.13-2.23Z"/><path id="greece" class="cls-1" d="M219.76,164.58l-.08.95L223,167.2l1.58.6-.83.87-1.84.19-.27.84.64,1.43,2.07,1.1.9.08.11-2.46,1.35-1.63L223,163.86l.49-1.48.86,0,1.32,1.06.83-.41.26-1.48,3.88,0,.15-2.27-1.62,1.14-4.74-.12-3.08,1.6-1.6,2.69Z"/><path id="thrace" class="cls-1" d="M231.42,158.93l-.12,2.54,2.22-.68,1-.68-.3-1.1-1-.83-1.76.75Z"/><path id="crete" class="cls-1" d="M226.94,173.86l1.17,0,.49.72h1.69l1.13-.41.38.45-.75,1-3.31.11-.6-.79-.64-.38.44-.73Z"/><path class="cls-3" d="M397.81,223c-3.52-32-33.29-105.52-82.52-139.17-33.11-22.62-81.37-24.17-131.45-14.89-45.53,8.43-109.32,48.86-133.78,65.23"/><path class="cls-4" d="M52.32,132.67l5.75,2.62-.08.21-9.26,2.05L40,141l6.48-6.84,5.33-7.85.21,0Z"/><path class="cls-3" d="M238.42,140.08c-56.58,33-121.14,31.12-187.12,5.57"/><path class="cls-4" d="M53.81,146.62l1,6.24-.22,0-6.86-6.54L40,141l9.3,1.57,9.48,0,.14.15Z"/><path class="cls-2" d="M40.11,138.3s-.83.52-.89.58a7.08,7.08,0,0,1-.94.23l-.66,1.14-.57-.12-.54,1.24v.17h.85l-.85.38-.35,1.24-.34-.47-.66.06.64.41v.71l.59.86,2-.19.08.27h1.08l.21.6.75-.12.44.29.41-.11.15.3,1.1-.27v-.65l-.71-.71.71-.77.19.56.37,0-.1-.75,1-.77.11-.66-.87-1.94-.73.52-.13-.85-1.06.21-.58-.79-.58.16Z"/></g><g id="Layer_2" data-name="Layer 2"><path class="cls-5" d="M224.87,124.17c-.57-1.23-.08-1.53-.43-2.82-.23-.85-.75-1.19-.92-1.9s.12-1.84-.05-2.4c-.32-1-.72-1.28-.93-2.12s.34-1.48.16-2.38a15,15,0,0,0-.79-2.17,5.27,5.27,0,0,1-.18-2.28,14.58,14.58,0,0,0-1.31-5.83,5,5,0,0,0-2.63-2.68H210.6v30.3A48.47,48.47,0,0,0,226,127.43C225.92,125.23,225.54,125.6,224.87,124.17Z"/><path class="cls-6" d="M203.42,99.59a5,5,0,0,0-2.63,2.68,14.58,14.58,0,0,0-1.31,5.83,5.27,5.27,0,0,1-.18,2.28,15,15,0,0,0-.79,2.17c-.18.9.36,1.53.15,2.38s-.6,1.1-.92,2.12c-.17.56.12,1.73-.05,2.4s-.69,1-.92,1.9c-.35,1.29.14,1.59-.43,2.82-.67,1.42-1.05,1.06-1.08,3.26a48.44,48.44,0,0,0,15.34,2.46V99.59Z"/><path class="cls-7" d="M222,130.26l-.23-1.72-.5-3.76a3.07,3.07,0,0,0-1.71-2.36l-2.37-1.14a.45.45,0,0,0-.61.21l-1.44-.53a1.22,1.22,0,0,1-.84-1.16v-2l2.64-1.1a3.71,3.71,0,0,0,2.27-3.4v-.62a1.84,1.84,0,0,0,0-3.68h0c-2.21-2.2-8.48-1.84-8.59-4.82-.12,3-6.39,2.62-8.6,4.82h0a1.84,1.84,0,0,0,0,3.68v.62a3.71,3.71,0,0,0,2.27,3.4l2.64,1.1v2a1.23,1.23,0,0,1-.84,1.16l-1.44.53a.45.45,0,0,0-.61-.21l-2.37,1.14a3.07,3.07,0,0,0-1.71,2.36l-.5,3.76-.23,1.72a1.85,1.85,0,0,0,1.83,2.08h19.11A1.85,1.85,0,0,0,222,130.26Z"/><path class="cls-8" d="M206.92,117.77v2a1.24,1.24,0,0,1-.59,1,8.36,8.36,0,0,0,8-3.08Z"/><path class="cls-9" d="M222,130.26l-.73-5.48a3.07,3.07,0,0,0-1.71-2.36l-2.37-1.14a.46.46,0,0,0-.63.23,11.39,11.39,0,0,1-6,5.92,11.46,11.46,0,0,1-5.95-5.92.45.45,0,0,0-.62-.23l-2.37,1.14a3.07,3.07,0,0,0-1.71,2.36l-.73,5.48a1.85,1.85,0,0,0,1.83,2.08h19.11A1.85,1.85,0,0,0,222,130.26Z"/><circle class="cls-7" cx="202.01" cy="110.86" r="1.84"/><path class="cls-10" d="M219.2,109V107.8a3.07,3.07,0,0,0-3.07-3.07h-11A3.07,3.07,0,0,0,202,107.8V109a1.84,1.84,0,0,0,0,3.68v.62a3.71,3.71,0,0,0,2.27,3.4l4,1.65a6.17,6.17,0,0,0,2.36.47h0a6.13,6.13,0,0,0,2.36-.47l4-1.65a3.71,3.71,0,0,0,2.27-3.4v-.62a1.84,1.84,0,0,0,0-3.68Z"/><path class="cls-7" d="M211.21,104.34l-.91-.53s-1.59,2-5.83,3.06A3.1,3.1,0,0,0,202,109h0a1.84,1.84,0,0,0,0,3.68v.62a3.71,3.71,0,0,0,2.27,3.4l4,1.65q.3.12.6.21a24.32,24.32,0,0,1-3.6-3.14,2.85,2.85,0,0,1-.77-2V109C206.16,107.69,210.37,107.85,211.21,104.34Z"/><path class="cls-6" d="M206.31,111.48h0a.61.61,0,0,1-.61-.62v-.61a.61.61,0,0,1,.61-.61h0a.61.61,0,0,1,.61.61v.61A.61.61,0,0,1,206.31,111.48Z"/><path class="cls-6" d="M214.9,111.48h0a.61.61,0,0,1-.61-.62v-.61a.61.61,0,0,1,.61-.61h0a.61.61,0,0,1,.61.61v.61A.61.61,0,0,1,214.9,111.48Z"/><path class="cls-11" d="M210.6,115.79a5,5,0,0,1-2.79-.74.6.6,0,0,1-.17-.85.62.62,0,0,1,.86-.16,4.52,4.52,0,0,0,4.21,0,.62.62,0,0,1,.86.16.61.61,0,0,1-.17.85A5.06,5.06,0,0,1,210.6,115.79Z"/><path class="cls-12" d="M211,128.26a13.46,13.46,0,0,0,6.6-6.78l-.42-.2a.46.46,0,0,0-.63.23,11.39,11.39,0,0,1-6,5.92,11.46,11.46,0,0,1-5.95-5.92.45.45,0,0,0-.62-.23l-.42.2a13.46,13.46,0,0,0,6.6,6.78l.39.19Z"/><path class="cls-12" d="M203.85,129.71a3.05,3.05,0,0,0-.64-1.88l-3-3.88a3.31,3.31,0,0,0-.24.83l-.73,5.48a1.85,1.85,0,0,0,1.83,2.08h2.8Z"/><path class="cls-12" d="M217.35,129.71a3.06,3.06,0,0,1,.65-1.88l3-3.88a2.92,2.92,0,0,1,.23.83l.74,5.48a1.85,1.85,0,0,1-1.83,2.08h-2.81Z"/><path class="cls-5" d="M212.45,96.75a2.58,2.58,0,0,0-1.84.61,2.59,2.59,0,0,0-1.85-.61c-3.39,0-10.93,4.68-8,11.66L202,109c2.21-2.2,8.48-1.84,8.6-4.82.11,3,6.39,2.62,8.59,4.82l1.23-.61C223.38,101.43,215.85,96.75,212.45,96.75Z"/><path class="cls-6" d="M208.76,96.75c-3.39,0-10.93,4.68-8,11.66V109H202a5.72,5.72,0,0,1,1.94-1.14c.4-7.26,4.33-11.08,6.65-10.52h0A2.59,2.59,0,0,0,208.76,96.75Z"/><path class="cls-13" d="M377.81,215.87l-.89-7.1a2,2,0,0,0-1.34-1.63l-4-1.34a.66.66,0,0,0-.82.39l-1-.33a1.33,1.33,0,0,1-.9-1.25v-2.13l2.84-1.19a3.94,3.94,0,0,0,2.44-3.65V197a2,2,0,0,0,1.45-3.33c.33-1.88,1.15-7.19.53-10.52a9,9,0,0,0-1.32-3.3,38.56,38.56,0,0,0-8.58,1.32l-.66-1.32s-7.29,0-9.23,3.3h0s-3.3,0-3.3,4a45.7,45.7,0,0,0,1.16,6.6,2,2,0,0,0,1.48,3.29v.66a4,4,0,0,0,2.44,3.66l2.84,1.18v2.13a1.33,1.33,0,0,1-.9,1.25l-1,.33a.66.66,0,0,0-.82-.39l-4,1.34a2,2,0,0,0-1.34,1.63l-.89,7.1a2,2,0,0,0,2,2.22h21.9A2,2,0,0,0,377.81,215.87Z"/><path class="cls-14" d="M358.63,218.09h12.53V205.93a1.25,1.25,0,0,0-.7.52,6.59,6.59,0,0,1-11.13,0,1.25,1.25,0,0,0-.7-.52Z"/><path class="cls-15" d="M360.94,202.42v2.19a1.33,1.33,0,0,1-.64,1.13,9,9,0,0,0,8.53-3.32Z"/><path class="cls-16" d="M354.34,194.34l20.45-14.51a9,9,0,0,1,1.32,3.3c.77,4.1-.66,11.21-.66,11.21Z"/><path class="cls-17" d="M365.55,179.83s-7.29,0-9.23,3.3h0s-3.3,0-3.3,4a52.51,52.51,0,0,0,1.32,7.25s14.05-6.23,20.45-14.51a38.56,38.56,0,0,0-8.58,1.32Z"/><path class="cls-7" d="M374.13,193v-1.31a3.3,3.3,0,0,0-3.3-3.3H359a3.3,3.3,0,0,0-3.3,3.3V193a2,2,0,0,0,0,4v.66a4,4,0,0,0,2.44,3.66l4.26,1.77a6.46,6.46,0,0,0,2.53.51h0a6.47,6.47,0,0,0,2.54-.51l4.26-1.78a3.94,3.94,0,0,0,2.44-3.65V197a2,2,0,0,0,0-4Z"/><path class="cls-6" d="M360.28,195.66h0a.65.65,0,0,1-.66-.66v-.66a.66.66,0,0,1,.66-.66h0a.67.67,0,0,1,.66.66V195A.66.66,0,0,1,360.28,195.66Z"/><path class="cls-6" d="M369.51,195.66h0a.66.66,0,0,1-.66-.66v-.66a.67.67,0,0,1,.66-.66h0a.67.67,0,0,1,.66.66V195A.66.66,0,0,1,369.51,195.66Z"/><path class="cls-15" d="M364.89,200.3a5.5,5.5,0,0,1-3-.79.66.66,0,1,1,.74-1.09,4.86,4.86,0,0,0,4.53,0,.66.66,0,1,1,.74,1.09A5.51,5.51,0,0,1,364.89,200.3Z"/><path class="cls-13" d="M370.83,190.39v-2H359a2.84,2.84,0,0,0-.66.07h0a3.3,3.3,0,0,0-2.64,3.24V193a2,2,0,0,0,0,4v.66a4,4,0,0,0,2.44,3.66l4.26,1.77c.21.09.42.16.63.23a28,28,0,0,1-3.87-3.37,3.13,3.13,0,0,1-.82-2.12V191A17.79,17.79,0,0,1,370.83,190.39Z"/><path class="cls-18" d="M372,205.94a1.3,1.3,0,0,0-1.51.51,6.59,6.59,0,0,1-11.13,0,1.3,1.3,0,0,0-1.51-.51l-.21.07a7.92,7.92,0,0,0,14.57,0Z"/><path class="cls-19" d="M360.94,218.09l-1.86-11.76a.66.66,0,0,0-.86-.53l-4,1.34a2,2,0,0,0-1.34,1.63l-.89,7.1a2,2,0,0,0,2,2.22Z"/><path class="cls-19" d="M368.85,218.09l1.86-11.76a.66.66,0,0,1,.86-.53l4,1.34a2,2,0,0,1,1.34,1.63l.89,7.1a2,2,0,0,1-2,2.22Z"/><path class="cls-20" d="M376.52,207.81a1.9,1.9,0,0,1,.4,1l.89,7.09a2,2,0,0,1-2,2.23h-3.69V214.3a4,4,0,0,1,1-2.61Z"/><path class="cls-21" d="M377.75,215.42a2.63,2.63,0,0,1-.63-5.06Z"/><path class="cls-16" d="M366.05,188.24a7.61,7.61,0,0,1,5.44,3.47,10.32,10.32,0,0,0-.27-3.47Z"/><path class="cls-20" d="M353.27,207.81a1.9,1.9,0,0,0-.4,1l-.89,7.09a2,2,0,0,0,2,2.23h3.7V214.3a4,4,0,0,0-1-2.61Z"/></g></svg>